<svg xmlns="http://www.w3.org/2000/svg" viewBox="0 0 113.34 36" width="113" height="36" fill="none" aria-hidden="true">
<g transform="translate(0, 0.955)"><path fill="#EE4D2D" d="M26.3563 34.0914C27.9093 34.0513 29.1668 32.7938 29.297 31.2408L29.3071 31.0555L30.4042 8.91235C30.4042 8.90233 30.4042 8.89231 30.4042 8.87728C30.4042 8.51658 30.1136 8.22601 29.7529 8.22601C29.7479 8.22601 29.7479 8.22601 29.7429 8.22601H22.6942C22.5238 3.6471 19.2324 0 15.1996 0C11.1667 0 7.88034 3.6471 7.71001 8.22601H0.641248C0.285556 8.23102 0 8.52159 0 8.87728C0 8.89231 0 8.91235 0 8.92738L1.00195 30.9853L1.01698 31.2609C1.17228 32.7938 2.28946 34.0312 3.81743 34.0864L26.2411 34.0914H26.3563ZM15.1996 1.98887C18.1353 1.98887 20.53 4.75926 20.6452 8.22601H9.759C9.86921 4.75926 12.2639 1.98887 15.1996 1.98887ZM20.7754 25.5147C20.5751 27.1529 19.5781 28.4654 18.0301 29.1217C17.1684 29.4874 16.0112 29.6828 15.0944 29.6227C13.6666 29.5676 12.324 29.2219 11.0866 28.5907C10.6457 28.3652 9.98444 27.9143 9.47845 27.4935C9.3482 27.3883 9.33317 27.3182 9.41833 27.1979C9.46342 27.1278 9.54859 27.0076 9.73395 26.732C10.0045 26.3363 10.0395 26.2912 10.0696 26.2411C10.1548 26.1108 10.295 26.0958 10.4353 26.206C10.4503 26.216 10.4503 26.216 10.4604 26.2261C10.4854 26.2411 10.4854 26.2411 10.5355 26.2862C10.5906 26.3263 10.6207 26.3513 10.6357 26.3613C11.9683 27.3983 13.5263 27.9995 15.0944 28.0596C17.2786 28.0296 18.8467 27.0577 19.1272 25.5598C19.4378 23.9115 18.1353 22.4888 15.5853 21.6972C14.7888 21.4468 12.7749 20.6502 12.4041 20.4348C10.6608 19.4178 9.84416 18.0902 9.95939 16.442C10.1347 14.1626 12.2689 12.4643 14.9591 12.4542C16.1615 12.4542 17.3638 12.6997 18.516 13.1807C18.9268 13.351 19.6533 13.7468 19.9037 13.9321C20.049 14.0373 20.0791 14.1626 19.9939 14.2928C19.9488 14.368 19.8687 14.4932 19.7084 14.7487V14.7537C19.4929 15.0894 19.4879 15.0994 19.4378 15.1795C19.3527 15.3048 19.2525 15.3198 19.1022 15.2246C17.8698 14.403 16.4971 13.9872 14.9942 13.9572C13.1205 13.9922 11.7178 15.0994 11.6226 16.6123C11.5976 17.975 12.6296 18.9719 14.8489 19.7284C19.3727 21.1612 21.0961 22.8495 20.7754 25.5147Z"/></g>
<g transform="translate(36.44, 12.09)">
<g transform="translate(0, 0)"><path fill="#EE4D2D" d="M0.425556 14.9659C0.230176 15.2665 0.145013 15.3868 0.0999251 15.4569C-0.0553773 15.6823 -0.0353398 15.7875 0.200119 15.9829C0.746182 16.4238 1.44755 16.8847 1.92347 17.1151C3.24104 17.7564 4.66882 18.097 6.17675 18.1271C7.15366 18.1772 8.37603 17.9467 9.28781 17.5409C10.936 16.8095 11.9881 15.3767 12.1734 13.6183C12.474 10.7678 10.6104 8.98429 5.80603 7.54649C3.57168 6.8301 2.51963 5.87324 2.51963 4.54064C2.58476 3.06777 3.95743 1.96563 5.81104 1.89549C7.30395 1.9005 8.62151 2.29126 9.91403 3.12288C10.1896 3.2882 10.3148 3.25815 10.4952 3.01768C10.5152 2.98261 10.5753 2.89744 10.8208 2.54676C11.0512 2.22113 11.1264 2.11091 11.1464 2.07584C11.3017 1.78528 11.2767 1.67506 11.0011 1.47467C10.7256 1.27929 9.9491 0.878513 9.50824 0.703172C8.27584 0.212216 7.00336 -0.0232418 5.7359 0.00180696C2.85028 0.061924 0.600899 1.93056 0.450606 4.38534C0.355421 6.15378 1.25717 7.58156 3.14585 8.63361C3.67689 8.90915 5.60564 9.64057 6.51241 9.90108C9.0774 10.6475 10.415 12.0252 10.1395 13.6484C9.88898 15.1212 8.33596 16.1031 6.15671 16.1733C4.57864 16.1382 2.98554 15.5621 1.60285 14.5301C1.59784 14.5251 1.56277 14.5 1.49765 14.4499C1.40747 14.3848 1.40747 14.3848 1.39244 14.3748C1.11189 14.1794 0.946571 14.1994 0.77123 14.4499C0.741172 14.485 0.530761 14.8106 0.425556 14.9659Z"/></g>
<g transform="translate(14.04, 0)"><path fill="#EE4D2D" d="M5.31034 6.82829C4.16311 6.82829 3.05595 7.194 2.13416 7.87533L2.02394 7.9605V0.335653C2.02394 0.0851658 1.93878 0 1.68829 0H0.335656C0.0601199 0 0 0.0651268 0 0.335653V17.7295C0 17.995 0.0651297 18.0652 0.335656 18.0652H1.68829C1.93878 18.0652 2.02394 17.98 2.02394 17.7295V12.0485C2.02394 10.1397 3.46174 8.83219 5.31034 8.81716C7.11886 8.80214 8.59674 10.1648 8.59674 12.0635V17.7295C8.59674 18.0151 8.64683 18.0652 8.93239 18.0652H10.285C10.5706 18.0652 10.6207 18.0151 10.6207 17.7295V12.0434C10.6107 9.17787 8.216 6.82829 5.31034 6.82829Z"/></g>
<g transform="translate(26.53, 6.84)"><path fill="#EE4D2D" d="M5.75119 0C2.57501 0 0 2.52492 0 5.63597C0 8.74703 2.57501 11.2719 5.75119 11.2719C8.92738 11.2719 11.5024 8.74703 11.5024 5.63597C11.5074 2.51991 8.93239 0 5.75119 0ZM5.75119 9.31313C3.67716 9.31313 1.99388 7.66492 1.99388 5.63096C1.99388 3.597 3.67716 1.94879 5.75119 1.94879C7.82523 1.94879 9.50851 3.597 9.50851 5.63096C9.50851 7.66492 7.82523 9.31313 5.75119 9.31313Z"/></g>
<g transform="translate(39.96, 6.81)"><path fill="#EE4D2D" d="M5.651 0C4.33845 0 3.081 0.450876 2.07404 1.27248L1.95882 1.36766V0.335653C1.95882 0.0601161 1.8987 0 1.62316 0H0.335653C0.0551064 0 0 0.0551064 0 0.335653V16.7576C0 17.0282 0.0601161 17.0933 0.335653 17.0933H1.62316C1.8987 17.0933 1.95882 17.0282 1.95882 16.7576V9.90929L2.07404 10.0045C3.081 10.8261 4.33845 11.277 5.651 11.277C8.77208 11.277 11.302 8.75204 11.302 5.64098C11.307 2.52491 8.77208 0 5.651 0ZM5.651 9.31313C3.6471 9.31313 2.01392 7.72003 1.95882 5.72615V5.53578C2.00891 3.5419 3.6471 1.94879 5.651 1.94879C7.68997 1.94879 9.34319 3.597 9.34319 5.63096C9.34319 7.66492 7.68997 9.31313 5.651 9.31313Z"/></g>
<g transform="translate(53.21, 6.83)"><path fill="#EE4D2D" d="M10.285 6.34235C10.295 6.34235 10.295 6.34235 10.3051 6.34235C10.3201 6.34235 10.3201 6.34235 10.3301 6.34235C10.6457 6.32732 10.9012 6.05679 10.9012 5.72615C10.9012 5.71112 10.9012 5.69609 10.9012 5.67605C10.9012 5.67104 10.9012 5.66603 10.9012 5.63597C10.9012 2.51991 8.46147 0 5.45061 0C2.43974 0 0 2.52492 0 5.63597C0 5.86642 0.0150225 6.10188 0.0400713 6.32732V6.33734L0.0500929 6.39745C0.200386 7.51964 0.676317 8.54664 1.43279 9.37826C1.43279 9.37826 1.43279 9.37826 1.4378 9.38327C2.27443 10.3051 3.41164 10.9313 4.66909 11.1667L4.68411 11.1718L4.76427 11.1868C4.80435 11.1918 4.84943 11.2018 4.90955 11.2118C6.56778 11.4122 8.04065 11.1718 9.28307 10.5455C9.58867 10.3902 9.8642 10.2199 10.1047 10.0395C10.1798 9.97943 10.2499 9.92432 10.3101 9.87422C10.3401 9.84918 10.3652 9.82413 10.3802 9.8091C10.6607 9.51853 10.6808 9.41834 10.5105 9.15282C10.3251 8.85724 10.1598 8.60175 10.0195 8.39134C9.96941 8.31619 9.92932 8.25607 9.88925 8.20598C9.86921 8.17592 9.86921 8.17592 9.85418 8.16089C9.84917 8.15588 9.84917 8.15588 9.84416 8.15087C9.68886 7.9605 9.58365 7.94046 9.41332 8.09075C9.39328 8.10578 9.33317 8.15588 9.32315 8.1659C8.12582 9.23298 6.48762 9.57364 4.85444 9.23298C4.54885 9.15282 4.26329 9.04761 4.00279 8.92237C2.9808 8.40637 2.25438 7.49459 2.04397 6.43252L2.02894 6.34736H2.11411L10.285 6.34235ZM2.18926 4.29837C2.6201 2.89063 3.92764 1.94879 5.45061 1.94879C6.90844 1.94879 8.29114 2.93572 8.77207 4.29336L8.80714 4.38854H2.16421L2.18926 4.29837Z"/></g>
<g transform="translate(65.99, 6.83)"><path fill="#EE4D2D" d="M10.285 6.34235C10.295 6.34235 10.295 6.34235 10.3051 6.34235C10.3201 6.34235 10.3201 6.34235 10.3301 6.34235C10.6457 6.32732 10.9012 6.05679 10.9012 5.72615C10.9012 5.71112 10.9012 5.69609 10.9012 5.67605C10.9012 5.67104 10.9012 5.66603 10.9012 5.63597C10.9012 2.51991 8.46147 0 5.45061 0C2.43975 0 0 2.52492 0 5.63597C0 5.86642 0.0150302 6.10188 0.0400789 6.32732V6.33734L0.0501006 6.39745C0.200393 7.51964 0.676317 8.54664 1.43279 9.37826C1.43279 9.37826 1.43279 9.37826 1.4378 9.38327C2.27443 10.3051 3.41164 10.9313 4.66909 11.1667L4.68412 11.1718L4.76427 11.1868C4.80435 11.1918 4.84944 11.2018 4.90956 11.2118C6.56779 11.4122 8.04065 11.1718 9.28307 10.5455C9.58867 10.3902 9.8642 10.2199 10.1047 10.0395C10.1798 9.97943 10.25 9.92432 10.3101 9.87422C10.3401 9.84918 10.3652 9.82413 10.3802 9.8091C10.6608 9.51853 10.6808 9.41834 10.5105 9.15282C10.3251 8.85724 10.1598 8.60175 10.0195 8.39134C9.96941 8.31619 9.92933 8.25607 9.88925 8.20598C9.86922 8.17592 9.86921 8.17592 9.85418 8.16089C9.84917 8.15588 9.84917 8.15588 9.84416 8.15087C9.68886 7.9605 9.58365 7.94046 9.41332 8.09075C9.39328 8.10578 9.33317 8.15588 9.32315 8.1659C8.12582 9.23298 6.48763 9.57364 4.85445 9.23298C4.54886 9.15282 4.2633 9.04761 4.0028 8.92237C2.98081 8.40637 2.25439 7.49459 2.04398 6.43252L2.02895 6.34736H2.11412L10.285 6.34235ZM2.19427 4.29837C2.62511 2.89063 3.93266 1.94879 5.45562 1.94879C6.91346 1.94879 8.29615 2.93572 8.77709 4.29336L8.81215 4.38854H2.16922L2.19427 4.29837Z"/></g>
</g>
</svg>